<mxfile host="app.diagrams.net" agent="Mozilla/5.0 (Windows NT 10.0; Win64; x64) AppleWebKit/537.36 (KHTML, like Gecko) Chrome/134.0.0.0 Safari/537.36" version="26.2.4" pages="3">
  <diagram name="MODELO CONCEITUAL" id="OHXxKzYVwvJXyhF1WQ49">
    <mxGraphModel dx="1044" dy="562" grid="1" gridSize="10" guides="1" tooltips="1" connect="1" arrows="1" fold="1" page="1" pageScale="1" pageWidth="827" pageHeight="1169" math="0" shadow="0">
      <root>
        <mxCell id="0" />
        <mxCell id="1" parent="0" />
        <mxCell id="QPqeQykuAXnZS5lVpcV4-9" style="edgeStyle=orthogonalEdgeStyle;rounded=0;orthogonalLoop=1;jettySize=auto;html=1;exitX=0;exitY=0.5;exitDx=0;exitDy=0;entryX=1;entryY=0.5;entryDx=0;entryDy=0;endArrow=none;startFill=0;" edge="1" parent="1" source="QPqeQykuAXnZS5lVpcV4-4" target="QPqeQykuAXnZS5lVpcV4-6">
          <mxGeometry relative="1" as="geometry" />
        </mxCell>
        <mxCell id="QPqeQykuAXnZS5lVpcV4-11" style="edgeStyle=orthogonalEdgeStyle;rounded=0;orthogonalLoop=1;jettySize=auto;html=1;exitX=1;exitY=0.5;exitDx=0;exitDy=0;entryX=0;entryY=0.5;entryDx=0;entryDy=0;endArrow=none;startFill=0;" edge="1" parent="1" source="QPqeQykuAXnZS5lVpcV4-1" target="QPqeQykuAXnZS5lVpcV4-7">
          <mxGeometry relative="1" as="geometry" />
        </mxCell>
        <mxCell id="QPqeQykuAXnZS5lVpcV4-13" style="edgeStyle=orthogonalEdgeStyle;rounded=0;orthogonalLoop=1;jettySize=auto;html=1;exitX=0.5;exitY=1;exitDx=0;exitDy=0;entryX=0.5;entryY=0;entryDx=0;entryDy=0;endArrow=none;startFill=0;" edge="1" parent="1" source="QPqeQykuAXnZS5lVpcV4-1" target="QPqeQykuAXnZS5lVpcV4-8">
          <mxGeometry relative="1" as="geometry" />
        </mxCell>
        <mxCell id="QPqeQykuAXnZS5lVpcV4-1" value="CLIENTES" style="whiteSpace=wrap;html=1;align=center;" vertex="1" parent="1">
          <mxGeometry x="374" y="150" width="100" height="40" as="geometry" />
        </mxCell>
        <mxCell id="QPqeQykuAXnZS5lVpcV4-3" value="PRODUTOS" style="whiteSpace=wrap;html=1;align=center;" vertex="1" parent="1">
          <mxGeometry x="670" y="40" width="100" height="40" as="geometry" />
        </mxCell>
        <mxCell id="QPqeQykuAXnZS5lVpcV4-4" value="PEDIDOS" style="whiteSpace=wrap;html=1;align=center;" vertex="1" parent="1">
          <mxGeometry x="374" y="390" width="100" height="40" as="geometry" />
        </mxCell>
        <mxCell id="QPqeQykuAXnZS5lVpcV4-5" value="PAGAMENTOS" style="whiteSpace=wrap;html=1;align=center;" vertex="1" parent="1">
          <mxGeometry x="70" y="50" width="100" height="40" as="geometry" />
        </mxCell>
        <mxCell id="QPqeQykuAXnZS5lVpcV4-10" style="edgeStyle=orthogonalEdgeStyle;rounded=0;orthogonalLoop=1;jettySize=auto;html=1;exitX=0;exitY=0.5;exitDx=0;exitDy=0;entryX=0.5;entryY=1;entryDx=0;entryDy=0;endArrow=none;startFill=0;" edge="1" parent="1" source="QPqeQykuAXnZS5lVpcV4-6" target="QPqeQykuAXnZS5lVpcV4-5">
          <mxGeometry relative="1" as="geometry" />
        </mxCell>
        <mxCell id="QPqeQykuAXnZS5lVpcV4-6" value="POSSUI" style="shape=rhombus;perimeter=rhombusPerimeter;whiteSpace=wrap;html=1;align=center;" vertex="1" parent="1">
          <mxGeometry x="160" y="145" width="70" height="50" as="geometry" />
        </mxCell>
        <mxCell id="QPqeQykuAXnZS5lVpcV4-12" style="edgeStyle=orthogonalEdgeStyle;rounded=0;orthogonalLoop=1;jettySize=auto;html=1;exitX=1;exitY=0.5;exitDx=0;exitDy=0;entryX=0.5;entryY=1;entryDx=0;entryDy=0;endArrow=none;startFill=0;" edge="1" parent="1" source="QPqeQykuAXnZS5lVpcV4-7" target="QPqeQykuAXnZS5lVpcV4-3">
          <mxGeometry relative="1" as="geometry" />
        </mxCell>
        <mxCell id="QPqeQykuAXnZS5lVpcV4-7" value="POSSUI" style="shape=rhombus;perimeter=rhombusPerimeter;whiteSpace=wrap;html=1;align=center;" vertex="1" parent="1">
          <mxGeometry x="600" y="145" width="70" height="50" as="geometry" />
        </mxCell>
        <mxCell id="QPqeQykuAXnZS5lVpcV4-14" style="edgeStyle=orthogonalEdgeStyle;rounded=0;orthogonalLoop=1;jettySize=auto;html=1;exitX=0.5;exitY=1;exitDx=0;exitDy=0;entryX=0.5;entryY=0;entryDx=0;entryDy=0;endArrow=none;startFill=0;" edge="1" parent="1" source="QPqeQykuAXnZS5lVpcV4-8" target="QPqeQykuAXnZS5lVpcV4-4">
          <mxGeometry relative="1" as="geometry" />
        </mxCell>
        <mxCell id="QPqeQykuAXnZS5lVpcV4-8" value="POSSUI" style="shape=rhombus;perimeter=rhombusPerimeter;whiteSpace=wrap;html=1;align=center;" vertex="1" parent="1">
          <mxGeometry x="386" y="260" width="76" height="60" as="geometry" />
        </mxCell>
        <mxCell id="QPqeQykuAXnZS5lVpcV4-15" value="(0,N)" style="text;html=1;align=center;verticalAlign=middle;resizable=0;points=[];autosize=1;strokeColor=none;fillColor=none;" vertex="1" parent="1">
          <mxGeometry x="414" y="350" width="50" height="30" as="geometry" />
        </mxCell>
        <mxCell id="QPqeQykuAXnZS5lVpcV4-16" value="(1,N)" style="text;html=1;align=center;verticalAlign=middle;resizable=0;points=[];autosize=1;strokeColor=none;fillColor=none;" vertex="1" parent="1">
          <mxGeometry x="415" y="198" width="50" height="30" as="geometry" />
        </mxCell>
        <mxCell id="QPqeQykuAXnZS5lVpcV4-17" value="(1,N)" style="text;html=1;align=center;verticalAlign=middle;resizable=0;points=[];autosize=1;strokeColor=none;fillColor=none;" vertex="1" parent="1">
          <mxGeometry x="485" y="148" width="50" height="30" as="geometry" />
        </mxCell>
        <mxCell id="QPqeQykuAXnZS5lVpcV4-18" value="(0,N)" style="text;html=1;align=center;verticalAlign=middle;resizable=0;points=[];autosize=1;strokeColor=none;fillColor=none;" vertex="1" parent="1">
          <mxGeometry x="275" y="148" width="50" height="30" as="geometry" />
        </mxCell>
        <mxCell id="QPqeQykuAXnZS5lVpcV4-19" value="(0,N)" style="text;html=1;align=center;verticalAlign=middle;resizable=0;points=[];autosize=1;strokeColor=none;fillColor=none;" vertex="1" parent="1">
          <mxGeometry x="105" y="108" width="50" height="30" as="geometry" />
        </mxCell>
        <mxCell id="QPqeQykuAXnZS5lVpcV4-20" value="(0,N)" style="text;html=1;align=center;verticalAlign=middle;resizable=0;points=[];autosize=1;strokeColor=none;fillColor=none;" vertex="1" parent="1">
          <mxGeometry x="665" y="108" width="50" height="30" as="geometry" />
        </mxCell>
      </root>
    </mxGraphModel>
  </diagram>
  <diagram id="NQlBLDPzrBL4ELKi4IVq" name="Página-2">
    <mxGraphModel dx="1044" dy="562" grid="1" gridSize="10" guides="1" tooltips="1" connect="1" arrows="1" fold="1" page="1" pageScale="1" pageWidth="827" pageHeight="1169" math="0" shadow="0">
      <root>
        <mxCell id="0" />
        <mxCell id="1" parent="0" />
      </root>
    </mxGraphModel>
  </diagram>
  <diagram id="FhsMZGjP1meQqx7MwFur" name="Página-3">
    <mxGraphModel dx="1044" dy="562" grid="1" gridSize="10" guides="1" tooltips="1" connect="1" arrows="1" fold="1" page="1" pageScale="1" pageWidth="827" pageHeight="1169" math="0" shadow="0">
      <root>
        <mxCell id="0" />
        <mxCell id="1" parent="0" />
      </root>
    </mxGraphModel>
  </diagram>
</mxfile>
